<svg width="710" height="48" viewBox="0 0 710 48" fill="none" xmlns="http://www.w3.org/2000/svg">
<g clip-path="url(#clip0_954_181)">
<rect width="70" height="48" rx="6" fill="white"/>
<path fill-rule="evenodd" clip-rule="evenodd" d="M15.24 17.1005H11.1954C10.9186 17.1005 10.6833 17.3016 10.6401 17.5748L9.00424 27.9464C8.97173 28.1511 9.13022 28.3355 9.33781 28.3355H11.2687C11.5455 28.3355 11.7809 28.1344 11.8241 27.8607L12.2653 25.0634C12.3078 24.7894 12.5438 24.5885 12.82 24.5885H14.1004C16.7647 24.5885 18.3023 23.2992 18.7041 20.7443C18.885 19.6266 18.7117 18.7483 18.1882 18.1331C17.6134 17.4579 16.5937 17.1005 15.24 17.1005ZM15.7067 20.8886C15.4855 22.3399 14.3766 22.3399 13.3044 22.3399H12.694L13.1222 19.6293C13.1477 19.4657 13.2896 19.345 13.4552 19.345H13.7349C14.4653 19.345 15.1544 19.345 15.5104 19.7612C15.7225 20.0098 15.7877 20.3787 15.7067 20.8886ZM27.3304 20.842H25.3935C25.2285 20.842 25.0859 20.9627 25.0604 21.1267L24.9748 21.6683L24.8393 21.4721C24.42 20.8634 23.4851 20.66 22.5518 20.66C20.4113 20.66 18.5834 22.2811 18.2273 24.5551C18.0423 25.6893 18.3053 26.7739 18.9488 27.5304C19.5391 28.2258 20.3837 28.5156 21.3884 28.5156C23.1129 28.5156 24.0694 27.4067 24.0694 27.4067L23.9829 27.945C23.9504 28.1508 24.1088 28.3353 24.3152 28.3353H26.0599C26.3374 28.3353 26.5714 28.1341 26.6152 27.8604L27.6621 21.2312C27.6952 21.0273 27.5373 20.842 27.3304 20.842ZM24.6305 24.6118C24.4435 25.7183 23.5653 26.4611 22.4454 26.4611C21.8829 26.4611 21.4333 26.2807 21.1448 25.9389C20.8585 25.5995 20.7496 25.1162 20.8407 24.5781C21.0154 23.4809 21.9084 22.714 23.0113 22.714C23.5612 22.714 24.0084 22.8966 24.3029 23.2414C24.5979 23.5898 24.715 24.0759 24.6305 24.6118ZM35.6994 20.8418H37.6459C37.9185 20.8418 38.0775 21.1475 37.9226 21.3711L31.4491 30.7152C31.3443 30.8666 31.1716 30.9566 30.9871 30.9566H29.0431C28.7694 30.9566 28.6096 30.6485 28.7681 30.4243L30.7837 27.5791L28.64 21.2876C28.5658 21.0689 28.7273 20.8418 28.9599 20.8418H30.8724C31.1209 20.8418 31.3402 21.0049 31.4119 21.2427L32.5496 25.0426L35.2342 21.0883C35.3392 20.934 35.5139 20.8418 35.6994 20.8418Z" fill="#253B80"/>
<path fill-rule="evenodd" clip-rule="evenodd" d="M56.8023 27.9464L58.4623 17.3852C58.4877 17.2212 58.6297 17.1005 58.7948 17.1H60.6635C60.8699 17.1 61.0283 17.285 60.9958 17.4897L59.3588 27.8608C59.3161 28.1345 59.0808 28.3356 58.8035 28.3356H57.1346C56.9282 28.3356 56.7698 28.1512 56.8023 27.9464ZM44.0899 17.1005H40.0446C39.7684 17.1005 39.533 17.3017 39.4898 17.5748L37.854 27.9464C37.8214 28.1512 37.9799 28.3356 38.1865 28.3356H40.2621C40.4551 28.3356 40.6201 28.1949 40.6502 28.0034L41.1144 25.0634C41.1571 24.7895 41.393 24.5886 41.6692 24.5886H42.9489C45.6138 24.5886 47.1511 23.2993 47.5531 20.7444C47.7346 19.6267 47.5603 18.7484 47.037 18.1332C46.4625 17.458 45.4436 17.1005 44.0899 17.1005ZM44.5566 20.8886C44.336 22.34 43.227 22.34 42.1541 22.34H41.5444L41.9732 19.6294C41.9987 19.4657 42.1394 19.345 42.3055 19.345H42.5852C43.3151 19.345 44.0048 19.345 44.3606 19.7613C44.573 20.0098 44.6376 20.3788 44.5566 20.8886ZM56.1792 20.8421H54.2437C54.0773 20.8421 53.936 20.9628 53.9111 21.1267L53.8255 21.6684L53.6894 21.4721C53.2702 20.8635 52.3358 20.6601 51.4025 20.6601C49.262 20.6601 47.4346 22.2811 47.0786 24.5552C46.8941 25.6894 47.156 26.774 47.7995 27.5304C48.3909 28.2259 49.2344 28.5157 50.2391 28.5157C51.9636 28.5157 52.9198 27.4067 52.9198 27.4067L52.8336 27.9451C52.8011 28.1509 52.9595 28.3353 53.1673 28.3353H54.9112C55.1873 28.3353 55.4227 28.1342 55.4659 27.8605L56.5133 21.2313C56.5454 21.0274 56.3869 20.8421 56.1792 20.8421ZM53.4795 24.6119C53.2937 25.7184 52.4143 26.4611 51.2941 26.4611C50.7328 26.4611 50.2823 26.2808 49.9936 25.939C49.7073 25.5996 49.5998 25.1163 49.6898 24.5782C49.8652 23.481 50.7572 22.7141 51.8601 22.7141C52.4102 22.7141 52.8572 22.8967 53.1519 23.2415C53.4481 23.5899 53.5652 24.076 53.4795 24.6119Z" fill="#179BD7"/>
<rect x="80" width="70" height="48" rx="6" fill="white"/>
<path fill-rule="evenodd" clip-rule="evenodd" d="M101.251 32.5165H97.0099L93.8299 20.3847C93.679 19.8267 93.3585 19.3333 92.8871 19.1008C91.7106 18.5165 90.4142 18.0514 89 17.8169V17.3498H95.8313C96.7742 17.3498 97.4813 18.0514 97.5991 18.8663L99.2491 27.6173L103.488 17.3498H107.61L101.251 32.5165ZM109.968 32.5165H105.963L109.26 17.3498H113.265L109.968 32.5165ZM118.447 21.5514C118.565 20.7346 119.272 20.2675 120.097 20.2675C121.393 20.1502 122.805 20.3848 123.984 20.9671L124.691 17.7016C123.512 17.2345 122.216 17 121.039 17C117.152 17 114.324 19.1008 114.324 22.0165C114.324 24.2346 116.327 25.3992 117.742 26.1008C119.272 26.8004 119.861 27.2675 119.743 27.9671C119.743 29.0165 118.565 29.4836 117.388 29.4836C115.974 29.4836 114.56 29.1338 113.265 28.5494L112.558 31.8169C113.972 32.3992 115.502 32.6338 116.917 32.6338C121.275 32.749 123.984 30.6502 123.984 27.5C123.984 23.5329 118.447 23.3004 118.447 21.5514V21.5514ZM138 32.5165L134.82 17.3498H131.404C130.697 17.3498 129.99 17.8169 129.754 18.5165L123.866 32.5165H127.989L128.812 30.3004H133.877L134.349 32.5165H138ZM131.994 21.4342L133.17 27.1502H129.872L131.994 21.4342Z" fill="#172B85"/>
<rect x="160" width="70" height="48" rx="6" fill="white"/>
<path fill-rule="evenodd" clip-rule="evenodd" d="M195.5 34.3139C193.117 36.3704 190.026 37.6119 186.648 37.6119C179.11 37.6119 173 31.4308 173 23.806C173 16.1811 179.11 10 186.648 10C190.026 10 193.117 11.2415 195.5 13.2981C197.883 11.2415 200.974 10 204.352 10C211.89 10 218 16.1811 218 23.806C218 31.4308 211.89 37.6119 204.352 37.6119C200.974 37.6119 197.883 36.3704 195.5 34.3139Z" fill="#ED0006"/>
<path fill-rule="evenodd" clip-rule="evenodd" d="M195.5 34.3139C198.434 31.7816 200.295 28.0136 200.295 23.806C200.295 19.5983 198.434 15.8303 195.5 13.2981C197.883 11.2415 200.974 10 204.352 10C211.89 10 218 16.1811 218 23.806C218 31.4308 211.89 37.6119 204.352 37.6119C200.974 37.6119 197.883 36.3704 195.5 34.3139Z" fill="#F9A000"/>
<path fill-rule="evenodd" clip-rule="evenodd" d="M195.5 13.2981C198.434 15.8304 200.295 19.5984 200.295 23.806C200.295 28.0136 198.434 31.7816 195.5 34.3138C192.566 31.7816 190.705 28.0136 190.705 23.806C190.705 19.5984 192.566 15.8304 195.5 13.2981Z" fill="#FF5E00"/>
<rect x="240" width="70" height="48" rx="6" fill="#1F72CD"/>
<path fill-rule="evenodd" clip-rule="evenodd" d="M252.549 17L246 31.4935H253.84L254.812 29.1826H257.034L258.006 31.4935H266.636V29.7298L267.405 31.4935H271.87L272.639 29.6925V31.4935H290.587L292.769 29.2426L294.813 31.4935L304.032 31.5121L297.462 24.2872L304.032 17H294.956L292.832 19.2093L290.852 17H271.327L269.65 20.7409L267.934 17H260.11V18.7037L259.24 17H252.549ZM279.352 19.0581H289.658L292.811 22.4633L296.065 19.0581H299.217L294.427 24.2852L299.217 29.452H295.922L292.769 26.0073L289.499 29.452H279.352V19.0581ZM281.897 23.1099V21.2114V21.2096H288.328L291.134 24.2458L288.204 27.2986H281.897V25.226H287.52V23.1099H281.897ZM254.066 19.0581H257.888L262.232 28.8862V19.0581H266.419L269.774 26.1048L272.867 19.0581H277.033V29.4581H274.498L274.477 21.3087L270.782 29.4581H268.514L264.798 21.3087V29.4581H259.584L258.595 27.1266H253.254L252.267 29.4561H249.474L254.066 19.0581ZM254.166 24.9712L255.926 20.8177L257.683 24.9712H254.166Z" fill="white"/>
<rect x="320" width="70" height="48" rx="6" fill="white"/>
<path d="M349.468 47L388.968 35.5V42C388.968 44.7614 386.73 47 383.968 47H349.468Z" fill="#FD6020"/>
<path fill-rule="evenodd" clip-rule="evenodd" d="M381.471 19.2217C383.644 19.2217 384.839 20.1888 384.839 22.0155C384.948 23.4124 383.97 24.5944 382.666 24.8093L385.6 28.7851H383.318L380.819 24.9168H380.602V28.7851H378.755V19.2217H381.471ZM380.602 23.6273H381.145C382.34 23.6273 382.884 23.09 382.884 22.1229C382.884 21.2633 382.34 20.726 381.145 20.726H380.602V23.6273ZM372.344 28.7851H377.559V27.1733H374.191V24.5944H377.451V22.9826H374.191V20.8335H377.559V19.2217H372.344V28.7851V28.7851ZM366.911 25.6689L364.412 19.2217H362.456L366.477 29H367.454L371.475 19.2217H369.519L366.911 25.6689V25.6689ZM344.854 24.0571C344.854 26.7435 347.027 29 349.744 29C350.613 29 351.373 28.7851 352.134 28.4627V26.3137C351.591 26.9584 350.83 27.3882 349.961 27.3882C348.222 27.3882 346.81 26.0987 346.81 24.3795V24.1646C346.701 22.4453 348.114 20.941 349.852 20.8335C350.722 20.8335 351.591 21.2633 352.134 21.908V19.759C351.482 19.3291 350.613 19.2217 349.852 19.2217C347.027 19.0068 344.854 21.2633 344.854 24.0571V24.0571ZM341.486 22.8751C340.399 22.4453 340.073 22.2304 340.073 21.6931C340.182 21.0484 340.725 20.5111 341.377 20.6186C341.92 20.6186 342.464 20.941 342.898 21.3708L343.876 20.0813C343.116 19.4366 342.138 19.0068 341.16 19.0068C339.639 18.8993 338.335 20.0813 338.226 21.5857V21.6931C338.226 22.9826 338.769 23.7348 340.508 24.272C340.943 24.3795 341.377 24.5944 341.812 24.8093C342.138 25.0242 342.355 25.3466 342.355 25.7764C342.355 26.5286 341.703 27.1733 341.051 27.1733H340.943C340.073 27.1733 339.313 26.636 338.987 25.8838L337.792 27.0658C338.443 28.2478 339.747 28.8925 341.051 28.8925C342.79 29 344.202 27.7106 344.311 25.9913V25.6689C344.202 24.3795 343.659 23.7348 341.486 22.8751V22.8751ZM335.184 28.7851H337.031V19.2217H335.184V28.7851V28.7851ZM326.6 19.2217H329.316H329.86C332.467 19.3292 334.532 21.4782 334.423 24.0571C334.423 25.454 333.771 26.7435 332.685 27.7106C331.707 28.4627 330.512 28.8926 329.316 28.7851H326.6V19.2217ZM328.99 27.1733C329.86 27.2807 330.838 26.9584 331.489 26.4211C332.141 25.7764 332.467 24.9168 332.467 23.9497C332.467 23.09 332.141 22.2304 331.489 21.5857C330.838 21.0484 329.86 20.7261 328.99 20.8335H328.447V27.1733H328.99Z" fill="black"/>
<path fill-rule="evenodd" clip-rule="evenodd" d="M357.676 19C354.959 19 352.677 21.1491 352.677 23.9429C352.677 26.6292 354.85 28.8858 357.676 28.9932C360.501 29.1007 362.674 26.8441 362.782 24.0503C362.674 21.2565 360.501 19 357.676 19V19Z" fill="#FD6020"/>
<rect x="400" width="70" height="48" rx="6" fill="white"/>
<path d="M438.09 38.9998C445.885 39.0375 453 32.5842 453 24.7339C453 16.1499 445.885 10.2157 438.09 10.2189H431.381C423.493 10.2157 417 16.1515 417 24.7339C417 32.5858 423.493 39.0375 431.381 38.9998H438.09Z" fill="#0079BE"/>
<path d="M431.413 11.4085C424.205 11.4109 418.364 17.3066 418.362 24.5833C418.364 31.8593 424.205 37.755 431.413 37.7574C438.623 37.755 444.466 31.8593 444.466 24.5833C444.466 17.3066 438.624 11.4109 431.413 11.4085ZM423.141 24.5833C423.139 22.9009 423.645 21.2571 424.593 19.8669C425.54 18.4766 426.885 17.4045 428.452 16.7907V32.3751C426.885 31.7618 425.54 30.6899 424.593 29.2997C423.645 27.9095 423.139 26.2657 423.141 24.5833V24.5833ZM434.374 32.3783V16.7899C435.942 17.4028 437.288 18.4748 438.236 19.8655C439.184 21.2563 439.69 22.9009 439.688 24.5841C439.69 26.2673 439.184 27.9118 438.236 29.3024C437.287 30.6931 435.941 31.7652 434.374 32.3783V32.3783Z" fill="white"/>
<path d="M438.09 38.9998C445.885 39.0375 453 32.5842 453 24.7339C453 16.1499 445.885 10.2157 438.09 10.2189H431.381C423.493 10.2157 417 16.1515 417 24.7339C417 32.5858 423.493 39.0375 431.381 38.9998H438.09Z" fill="#0079BE"/>
<path d="M431.413 11.4085C424.205 11.4109 418.364 17.3066 418.362 24.5833C418.364 31.8593 424.205 37.755 431.413 37.7574C438.623 37.755 444.466 31.8593 444.466 24.5833C444.466 17.3066 438.624 11.4109 431.413 11.4085ZM423.141 24.5833C423.139 22.9009 423.645 21.2571 424.593 19.8669C425.54 18.4766 426.885 17.4045 428.452 16.7907V32.3751C426.885 31.7618 425.54 30.6899 424.593 29.2997C423.645 27.9095 423.139 26.2657 423.141 24.5833V24.5833ZM434.374 32.3783V16.7899C435.942 17.4028 437.288 18.4748 438.236 19.8655C439.184 21.2563 439.69 22.9009 439.688 24.5841C439.69 26.2673 439.184 27.9118 438.236 29.3024C437.287 30.6931 435.941 31.7652 434.374 32.3783V32.3783Z" fill="white"/>
<rect x="480" width="70" height="48" rx="6" fill="white"/>
<path d="M501.655 10.0015H512.687C514.227 10.0015 515.185 11.2567 514.825 12.8017L509.69 34.8524C509.327 36.3921 507.785 37.6483 506.244 37.6483H495.214C493.676 37.6483 492.716 36.3921 493.075 34.8524L498.213 12.8017C498.573 11.2567 500.114 10.0015 501.655 10.0015Z" fill="#E21836"/>
<path d="M511.768 10H524.454C525.994 10 525.3 11.2552 524.938 12.8002L519.802 34.8509C519.442 36.3905 519.555 37.6468 518.012 37.6468H505.326C503.783 37.6468 502.828 36.3905 503.19 34.8509L508.325 12.8002C508.69 11.2552 510.228 10 511.768 10Z" fill="#00447C"/>
<path d="M523.952 10H534.983C536.525 10 537.483 11.2552 537.121 12.8002L531.986 34.8509C531.623 36.3905 530.08 37.6468 528.538 37.6468H517.512C515.969 37.6468 515.012 36.3905 515.374 34.8509L520.51 12.8002C520.869 11.2552 522.409 10 523.952 10Z" fill="#007B84"/>
<path d="M504.536 17.0666C503.402 17.0781 503.067 17.0666 502.96 17.0413C502.918 17.2368 502.153 20.7681 502.151 20.771C501.986 21.4854 501.866 21.9947 501.459 22.3236C501.227 22.5147 500.957 22.607 500.644 22.607C500.141 22.607 499.848 22.3572 499.799 21.8834L499.79 21.7207C499.79 21.7207 499.943 20.7638 499.943 20.7584C499.943 20.7584 500.746 17.5404 500.89 17.115C500.898 17.0908 500.9 17.0781 500.902 17.0666C499.338 17.0803 499.061 17.0666 499.042 17.0413C499.031 17.076 498.992 17.2755 498.992 17.2755L498.172 20.9025L498.102 21.2101L497.965 22.2163C497.965 22.5147 498.024 22.7583 498.141 22.9643C498.514 23.6174 499.58 23.7153 500.184 23.7153C500.961 23.7153 501.69 23.5502 502.182 23.2488C503.037 22.7436 503.261 21.9538 503.46 21.252L503.553 20.892C503.553 20.892 504.381 17.5498 504.521 17.115C504.527 17.0908 504.529 17.0781 504.536 17.0666ZM507.352 19.7628C507.152 19.7628 506.788 19.8112 506.46 19.9717C506.342 20.0328 506.229 20.1032 506.111 20.1734L506.218 19.787L506.159 19.7219C505.464 19.8626 505.309 19.8814 504.667 19.9717L504.614 20.0075C504.539 20.6251 504.473 21.0895 504.197 22.3035C504.092 22.7509 503.983 23.2027 503.873 23.649L503.903 23.7057C504.56 23.671 504.76 23.671 505.331 23.6805L505.377 23.6302C505.45 23.2583 505.459 23.1712 505.62 22.418C505.696 22.061 505.853 21.2764 505.931 20.997C506.074 20.9308 506.215 20.8658 506.349 20.8658C506.669 20.8658 506.63 21.1451 506.618 21.2565C506.604 21.4433 506.488 22.0537 506.368 22.5778L506.288 22.916C506.232 23.1658 506.171 23.4086 506.116 23.6563L506.14 23.7057C506.788 23.671 506.985 23.671 507.539 23.6805L507.604 23.6302C507.704 23.0494 507.733 22.894 507.911 22.0483L508 21.6598C508.173 20.8994 508.261 20.5138 508.129 20.1997C507.991 19.8478 507.658 19.7628 507.352 19.7628ZM510.498 20.5589C510.153 20.6251 509.934 20.6692 509.715 20.6977C509.499 20.7324 509.288 20.7638 508.955 20.8101L508.928 20.834L508.904 20.8531C508.87 21.101 508.845 21.3153 508.799 21.5673C508.76 21.8278 508.7 22.1239 508.603 22.5492C508.527 22.8749 508.488 22.9883 508.445 23.1029C508.403 23.2174 508.357 23.3287 508.272 23.649L508.292 23.6786L508.309 23.7057C508.62 23.6909 508.823 23.6804 509.033 23.6786C509.241 23.671 509.458 23.6786 509.793 23.6804L509.822 23.6565L509.854 23.6302C509.902 23.3414 509.909 23.2637 509.939 23.1228C509.968 22.9717 510.019 22.7625 510.143 22.2037C510.201 21.9413 510.267 21.6797 510.328 21.4118C510.391 21.1451 510.457 20.8824 510.52 20.62L510.51 20.5883L510.498 20.5589ZM510.505 19.4855C510.192 19.3008 509.643 19.3594 509.273 19.6146C508.904 19.8646 508.862 20.2196 509.174 20.4067C509.482 20.5863 510.033 20.5328 510.4 20.2755C510.768 20.02 510.814 19.6683 510.505 19.4855ZM512.398 23.7636C513.031 23.7636 513.68 23.5891 514.169 23.0712C514.545 22.6512 514.717 22.0263 514.777 21.769C514.971 20.9161 514.82 20.5179 514.63 20.2754C514.341 19.9056 513.83 19.7871 513.301 19.7871C512.983 19.7871 512.224 19.8185 511.632 20.3646C511.207 20.7585 511.01 21.2931 510.892 21.8056C510.772 22.3278 510.634 23.2678 511.499 23.6176C511.765 23.7321 512.15 23.7636 512.398 23.7636ZM512.348 21.8446C512.494 21.1987 512.667 20.6566 513.107 20.6566C513.451 20.6566 513.476 21.06 513.323 21.708C513.296 21.8518 513.17 22.3866 513 22.6144C512.881 22.7824 512.74 22.8843 512.585 22.8843C512.538 22.8843 512.263 22.8843 512.259 22.4759C512.257 22.2742 512.298 22.0683 512.348 21.8446ZM516.36 23.6805L516.409 23.6303C516.479 23.2584 516.491 23.171 516.646 22.4181C516.724 22.061 516.885 21.2764 516.96 20.9971C517.103 20.9307 517.242 20.8656 517.381 20.8656C517.699 20.8656 517.66 21.145 517.647 21.2563C517.636 21.4434 517.519 22.0535 517.397 22.5776L517.322 22.9158C517.264 23.1659 517.201 23.4084 517.145 23.6563L517.17 23.7058C517.82 23.6711 518.01 23.6711 518.566 23.6805L518.634 23.6303C518.731 23.0492 518.758 22.8938 518.94 22.0484L519.028 21.6596C519.202 20.8992 519.29 20.5139 519.161 20.1998C519.018 19.8479 518.683 19.7629 518.382 19.7629C518.182 19.7629 517.815 19.811 517.49 19.9718C517.373 20.0328 517.257 20.103 517.142 20.1735L517.242 19.7871L517.188 19.7217C516.494 19.8626 516.335 19.8815 515.695 19.9718L515.645 20.0076C515.568 20.6252 515.505 21.0893 515.228 22.3036C515.123 22.751 515.014 23.2027 514.905 23.6491L514.934 23.7058C515.593 23.6711 515.789 23.6711 516.36 23.6805ZM521.137 23.7057C521.177 23.5062 521.42 22.3236 521.422 22.3236C521.422 22.3236 521.629 21.4559 521.642 21.4245C521.642 21.4245 521.707 21.3341 521.772 21.2984H521.868C522.771 21.2984 523.791 21.2984 524.59 20.7103C525.134 20.307 525.506 19.7114 525.672 18.9876C525.715 18.8101 525.747 18.599 525.747 18.3879C525.747 18.1107 525.691 17.8365 525.53 17.6222C525.122 17.0518 524.311 17.0414 523.374 17.0371C523.371 17.0371 522.912 17.0414 522.912 17.0414C521.712 17.0562 521.231 17.0518 521.034 17.0276C521.017 17.115 520.985 17.2705 520.985 17.2705C520.985 17.2705 520.556 19.2618 520.556 19.265C520.556 19.265 519.527 23.4989 519.479 23.6984C520.526 23.6858 520.956 23.6858 521.137 23.7057ZM521.933 20.1682C521.933 20.1682 522.39 18.1809 522.387 18.1884L522.402 18.0865L522.409 18.0088L522.591 18.0276C522.591 18.0276 523.533 18.1086 523.555 18.1107C523.927 18.2546 524.081 18.6254 523.974 19.1094C523.876 19.5517 523.589 19.9235 523.22 20.1032C522.917 20.2553 522.545 20.268 522.162 20.268H521.914L521.933 20.1682ZM524.777 21.8814C524.656 22.396 524.518 23.336 525.378 23.6711C525.652 23.7878 525.898 23.8225 526.148 23.8098C526.411 23.7956 526.656 23.6633 526.882 23.4729C526.862 23.5512 526.841 23.6294 526.821 23.7079L526.86 23.7582C527.479 23.7321 527.671 23.7321 528.341 23.7372L528.402 23.691C528.499 23.1156 528.592 22.5568 528.846 21.456C528.97 20.9287 529.094 20.4065 529.221 19.8814L529.201 19.8236C528.509 19.9519 528.324 19.9793 527.658 20.0737L527.608 20.1148C527.601 20.1683 527.594 20.2197 527.587 20.271C527.484 20.1038 527.334 19.961 527.102 19.872C526.806 19.7556 526.111 19.9056 525.513 20.4498C525.093 20.8384 524.892 21.3708 524.777 21.8814ZM526.231 21.9128C526.379 21.2785 526.549 20.7418 526.99 20.7418C527.269 20.7418 527.416 20.9992 527.386 21.438C527.362 21.5474 527.337 21.6628 527.306 21.7932C527.262 21.9817 527.214 22.1685 527.168 22.3557C527.12 22.4837 527.065 22.6044 527.005 22.6848C526.891 22.8456 526.621 22.9454 526.466 22.9454C526.422 22.9454 526.15 22.9454 526.14 22.5442C526.138 22.3444 526.179 22.1387 526.231 21.9128ZM533.821 19.8185L533.768 19.7574C533.083 19.8962 532.959 19.9182 532.33 20.0032L532.284 20.0494C532.282 20.057 532.28 20.0685 532.276 20.079L532.274 20.0685C531.806 21.1492 531.82 20.9161 531.438 21.7668C531.436 21.7281 531.436 21.7039 531.434 21.6627L531.339 19.8185L531.279 19.7574C530.561 19.8962 530.544 19.9182 529.882 20.0032L529.83 20.0494C529.823 20.0715 529.823 20.0957 529.819 20.122L529.823 20.1314C529.906 20.5547 529.886 20.4603 529.969 21.1282C530.008 21.456 530.059 21.7856 530.098 22.1094C530.163 22.6512 530.2 22.9179 530.28 23.7447C529.832 24.4831 529.726 24.7625 529.296 25.4105L529.298 25.4169L528.995 25.8966C528.961 25.9472 528.929 25.9818 528.885 25.9966C528.837 26.0206 528.774 26.0249 528.686 26.0249H528.518L528.268 26.8557L529.125 26.8705C529.628 26.8684 529.945 26.6331 530.115 26.3169L530.654 25.3935H530.645L530.702 25.3285C531.064 24.5482 533.821 19.8185 533.821 19.8185ZM524.777 30.7305H524.413L525.759 26.2802H526.205L526.347 25.8217L526.361 26.3315C526.344 26.6467 526.592 26.926 527.243 26.8798H527.996L528.256 26.0229H527.972C527.809 26.0229 527.734 25.9817 527.743 25.8935L527.729 25.3748H526.335V25.3775C525.884 25.3869 524.537 25.4208 524.265 25.4934C523.935 25.5784 523.587 25.8284 523.587 25.8284L523.724 25.3695H522.419L522.147 26.2802L520.784 30.7985H520.519L520.259 31.6493H522.858L522.771 31.9329H524.051L524.136 31.6493H524.496L524.777 30.7305ZM523.711 27.1844C523.502 27.2422 523.113 27.4176 523.113 27.4176L523.459 26.2802H524.496L524.245 27.1089C524.245 27.1089 523.925 27.1277 523.711 27.1844ZM523.731 28.8093C523.731 28.8093 523.405 28.8502 523.191 28.8986C522.98 28.9626 522.584 29.1642 522.584 29.1642L522.941 27.9806H523.983L523.731 28.8093ZM523.15 30.741H522.11L522.412 29.7421H523.448L523.15 30.741ZM525.654 27.9806H527.153L526.937 28.6781H525.419L525.191 29.4407H526.52L525.513 30.8574C525.443 30.9615 525.38 30.9983 525.31 31.0276C525.239 31.0634 525.147 31.1053 525.04 31.1053H524.671L524.418 31.9405H525.382C525.883 31.9405 526.179 31.7125 526.398 31.4132L527.088 30.4689L527.236 31.4277C527.267 31.6073 527.396 31.7125 527.484 31.7533C527.58 31.8017 527.68 31.8848 527.821 31.8972C527.972 31.9036 528.081 31.9087 528.154 31.9087H528.628L528.912 30.9741H528.725C528.618 30.9741 528.433 30.9561 528.402 30.9225C528.37 30.8816 528.37 30.8187 528.353 30.723L528.203 29.762H527.588L527.858 29.4407H529.373L529.606 28.6781H528.203L528.422 27.9806H529.821L530.08 27.1204H525.909L525.654 27.9806ZM512.995 30.9352L513.345 29.7715H514.783L515.046 28.9059H513.607L513.826 28.1896H515.233L515.493 27.3515H511.974L511.719 28.1896H512.519L512.305 28.9059H511.504L511.238 29.7862H512.037L511.571 31.3259C511.508 31.5297 511.601 31.6074 511.659 31.7021C511.719 31.7943 511.78 31.8553 511.917 31.89C512.058 31.9215 512.154 31.9403 512.285 31.9403H513.906L514.195 30.9814L513.476 31.0801C513.338 31.0801 512.953 31.0635 512.995 30.9352ZM513.16 25.3642L512.796 26.0227C512.718 26.1666 512.648 26.2558 512.585 26.297C512.529 26.3317 512.419 26.3462 512.259 26.3462H512.069L511.815 27.1886H512.446C512.75 27.1886 512.983 27.0773 513.094 27.0216C513.214 26.9576 513.245 26.9942 513.338 26.9049L513.551 26.7202H515.522L515.784 25.8431H514.341L514.593 25.3642H513.16ZM516.071 30.9521C516.037 30.9037 516.061 30.8185 516.113 30.641L516.652 28.8575H518.568C518.848 28.8535 519.05 28.8502 519.181 28.8408C519.322 28.826 519.475 28.7758 519.642 28.6854C519.814 28.5908 519.902 28.491 519.977 28.3765C520.06 28.2622 520.193 28.0121 520.308 27.6265L520.985 25.3695L518.996 25.3811C518.996 25.3811 518.383 25.4714 518.114 25.5712C517.842 25.6825 517.453 25.9933 517.453 25.9933L517.633 25.3746H516.404L514.683 31.0801C514.622 31.3017 514.581 31.4625 514.572 31.559C514.569 31.663 514.703 31.766 514.79 31.8437C514.893 31.9214 515.046 31.9088 515.192 31.9214C515.345 31.933 515.563 31.9403 515.865 31.9403H516.809L517.099 30.9615L516.254 31.0414C516.163 31.0414 516.098 30.993 516.071 30.9521ZM516.999 27.6529H519.013L518.885 28.0541C518.867 28.0635 518.824 28.0342 518.619 28.0584H516.875L516.999 27.6529ZM517.403 26.3074H519.433L519.287 26.7906C519.287 26.7906 518.33 26.7812 518.177 26.8094C517.502 26.9261 517.108 27.2864 517.108 27.2864L517.403 26.3074ZM518.93 29.3975C518.913 29.4575 518.887 29.494 518.85 29.5215C518.809 29.5478 518.743 29.5572 518.644 29.5572H518.357L518.374 29.0686H517.181L517.133 31.4572C517.131 31.6295 517.147 31.7293 517.273 31.8091C517.4 31.9089 517.788 31.9215 518.311 31.9215H519.059L519.329 31.0275L518.678 31.0632L518.461 31.0759C518.432 31.0632 518.404 31.0517 518.372 31.0202C518.345 30.9931 518.298 31.0097 518.306 30.8374L518.311 30.2251L518.994 30.1969C519.362 30.1969 519.52 30.077 519.654 29.9627C519.783 29.8533 519.825 29.7274 519.873 29.5572L519.988 29.0151H519.049L518.93 29.3975Z" fill="#FEFEFE"/>
<rect x="560" width="70" height="48" rx="6" fill="white"/>
<path d="M604.636 24.5746C605.664 24.5969 606.697 24.5292 607.72 24.6098C608.756 24.8031 609.006 26.3718 608.085 26.8856C607.457 27.2241 606.711 27.0117 606.03 27.0714H604.636V24.5746V24.5746ZM608.314 21.7486C608.542 22.5542 607.766 23.2776 606.99 23.1666H604.636C604.653 22.4069 604.604 21.5822 604.66 20.8625C605.603 20.889 606.555 20.8083 607.492 20.9047C607.895 21.0058 608.232 21.3369 608.314 21.7486V21.7486ZM613.978 9.80088C614.022 11.3395 613.984 12.9594 613.997 14.5292C613.994 20.9115 614.003 27.2936 613.992 33.6763C613.951 36.0682 611.831 38.1466 609.455 38.1943C607.078 38.204 604.7 38.1958 602.322 38.1985V28.5498C604.913 28.5364 607.505 28.5769 610.095 28.5295C611.296 28.4541 612.612 27.6614 612.668 26.3392C612.81 25.0114 611.558 24.0929 610.369 23.9478C609.912 23.936 609.926 23.8147 610.369 23.7617C611.503 23.5167 612.393 22.3434 612.059 21.1683C611.775 19.9324 610.409 19.4541 609.273 19.4564C606.956 19.4407 604.639 19.4542 602.322 19.4497C602.337 17.6484 602.291 15.8451 602.347 14.0452C602.531 11.6964 604.704 9.75948 607.046 9.8015C609.357 9.80115 611.668 9.80115 613.978 9.80106V9.80088Z" fill="url(#paint0_linear_954_181)"/>
<path d="M576.141 14.2885C576.2 11.9003 578.329 9.83898 580.701 9.80408C583.07 9.79679 585.44 9.80303 587.808 9.80092C587.802 17.7911 587.821 25.7821 587.799 33.7719C587.707 36.131 585.602 38.153 583.255 38.1948C580.882 38.2034 578.508 38.196 576.135 38.1984V28.2244C578.44 28.7691 580.858 29.0009 583.21 28.6396C584.616 28.4134 586.154 27.723 586.63 26.2645C586.98 25.0169 586.783 23.7039 586.835 22.4234V19.4497H582.765C582.746 21.4164 582.802 23.3866 582.735 25.351C582.626 26.5584 581.43 27.3256 580.291 27.2846C578.879 27.2996 576.08 26.2611 576.08 26.2611C576.073 22.5762 576.121 17.9615 576.141 14.2888V14.2885Z" fill="url(#paint1_linear_954_181)"/>
<path d="M589.326 20.6492C589.112 20.6946 589.283 19.9194 589.228 19.6253C589.243 17.7659 589.198 15.9045 589.253 14.0464C589.436 11.6877 591.626 9.74596 593.978 9.80117H600.903C600.896 17.7913 600.915 25.7824 600.893 33.7721C600.801 36.1312 598.696 38.1532 596.349 38.195C593.976 38.204 591.602 38.1965 589.228 38.1987V27.2709C590.849 28.601 593.053 28.808 595.072 28.8116C596.595 28.8111 598.108 28.5763 599.587 28.2252V26.2232C597.921 27.0536 595.962 27.5811 594.115 27.104C592.826 26.7833 591.891 25.5381 591.912 24.2084C591.763 22.8255 592.573 21.3656 593.932 20.9545C595.619 20.4263 597.458 20.8303 599.04 21.517C599.378 21.6944 599.722 21.9145 599.587 21.3481V19.7745C596.942 19.1452 594.127 18.9137 591.47 19.5983C590.701 19.8152 589.951 20.1443 589.326 20.6494V20.6492Z" fill="url(#paint2_linear_954_181)"/>
<rect x="640" width="70" height="48" rx="6" fill="white"/>
<g clip-path="url(#clip1_954_181)">
<path d="M670.996 25.3325H649V32.6603H670.996V25.3325Z" fill="#84B740"/>
<path d="M670.996 15.3335H649V22.6678H670.996V15.3335Z" fill="#259BD6"/>
<path d="M692.993 31.1712L692.895 31.1908C692.555 31.2561 692.431 31.2822 692.183 31.2822C691.608 31.2822 690.929 30.9883 690.929 29.6037C690.929 28.8919 691.047 27.9449 692.118 27.9449H692.124C692.307 27.9579 692.516 27.9775 692.908 28.0951L692.993 28.1212V31.1712ZM693.169 24.2679L692.993 24.3006V26.8607L692.836 26.815L692.791 26.8019C692.614 26.7497 692.209 26.6321 691.817 26.6321C689.675 26.6321 689.225 28.2518 689.225 29.6103C689.225 31.4716 690.27 32.5427 692.092 32.5427C692.862 32.5427 693.431 32.4643 694.005 32.2749C694.534 32.1051 694.724 31.8635 694.724 31.3475V24.0001C694.214 24.0916 693.685 24.183 693.169 24.2679Z" fill="#27292D"/>
<path d="M699.361 31.2169L699.269 31.243L698.943 31.3279C698.636 31.4063 698.361 31.452 698.153 31.452C697.65 31.452 697.349 31.2038 697.349 30.7793C697.349 30.505 697.473 30.0413 698.296 30.0413H699.361V31.2169ZM698.61 26.5995C697.95 26.5995 697.271 26.717 696.428 26.9783L695.88 27.1415L696.063 28.3824L696.598 28.2061C697.16 28.0232 697.859 27.9057 698.381 27.9057C698.616 27.9057 699.335 27.9057 699.335 28.6829V29.0225H698.335C696.513 29.0225 695.671 29.6037 695.671 30.8512C695.671 31.9157 696.448 32.5558 697.754 32.5558C698.159 32.5558 698.721 32.4774 699.204 32.3598L699.23 32.3533L699.256 32.3598L699.42 32.386C699.929 32.4774 700.458 32.5688 700.974 32.6668V28.5914C700.974 27.2722 700.177 26.5995 698.61 26.5995Z" fill="#27292D"/>
<path d="M686.671 31.2169L686.579 31.243L686.253 31.3279C685.946 31.4063 685.678 31.452 685.463 31.452C684.96 31.452 684.659 31.2038 684.659 30.7793C684.659 30.505 684.783 30.0413 685.6 30.0413H686.664L686.671 31.2169ZM685.926 26.5995C685.26 26.5995 684.588 26.717 683.745 26.9783L683.196 27.1415L683.379 28.3824L683.915 28.2061C684.476 28.0232 685.175 27.9057 685.698 27.9057C685.933 27.9057 686.651 27.9057 686.651 28.6829V29.0225H685.652C683.83 29.0225 682.981 29.6037 682.981 30.8512C682.981 31.9157 683.758 32.5558 685.071 32.5558C685.476 32.5558 686.037 32.4774 686.521 32.3598L686.547 32.3533L686.573 32.3598L686.73 32.386C687.246 32.4774 687.768 32.5688 688.284 32.6733V28.598C688.291 27.2656 687.494 26.5995 685.926 26.5995Z" fill="#27292D"/>
<path d="M679.794 26.6125C678.964 26.6125 678.279 26.8868 678.024 27.0044L677.959 27.0371L677.9 26.9913C677.547 26.7366 677.031 26.606 676.313 26.606C675.679 26.606 675.085 26.6974 674.438 26.8868C673.883 27.0566 673.668 27.3244 673.668 27.8273V32.4839H675.405V28.18L675.49 28.1539C675.843 28.0363 676.052 28.0167 676.254 28.0167C676.757 28.0167 677.012 28.2845 677.012 28.807V32.4905H678.723V28.7351C678.723 28.5131 678.677 28.3824 678.67 28.3563L678.612 28.2453L678.729 28.193C678.991 28.0755 679.278 28.0167 679.578 28.0167C679.924 28.0167 680.336 28.1539 680.336 28.807V32.4905H682.04V28.6372C682.04 27.2722 681.309 26.6125 679.794 26.6125Z" fill="#27292D"/>
<path d="M698.081 20.1142C697.826 20.1142 697.401 20.088 697.068 20.0227L696.97 20.0031V17.4887C696.97 17.2797 696.931 17.1491 696.925 17.1295L696.872 17.025L696.983 16.9793C697.01 16.9662 697.036 16.9597 697.068 16.9466L697.088 16.9336C697.127 16.9205 697.166 16.9074 697.205 16.8944C697.225 16.8878 697.238 16.8813 697.251 16.8813C697.637 16.7768 697.989 16.7899 698.146 16.7768H698.152C699.217 16.7768 699.341 17.7238 699.341 18.4357C699.335 19.8203 698.649 20.1142 698.081 20.1142ZM698.074 15.3335C698.061 15.3335 698.041 15.3335 698.028 15.3335C697.029 15.3335 696.004 15.6078 695.638 16.1433C695.442 16.4045 695.331 16.7311 695.325 17.1164V19.7092C695.325 19.9313 695.279 20.0162 695.272 20.0358L695.214 20.1468H692.059V18.3443H692.053C692.013 16.4437 690.89 15.3988 689.264 15.3988H689.074H687.677C687.611 15.8625 687.559 16.189 687.494 16.6527H689.074C689.904 16.6527 690.341 17.3581 690.341 18.4422V20.2578L690.23 20.1991C690.211 20.1925 690.074 20.1468 689.858 20.1468H687.128C687.076 20.493 687.011 20.9436 686.939 21.3942H695.331C695.618 21.3355 695.952 21.2832 696.239 21.2375C696.663 21.4465 697.454 21.5575 697.996 21.5575C699.818 21.5575 701 20.3362 701 18.4553C700.993 16.5939 699.851 15.3726 698.074 15.3335Z" fill="#27292D"/>
<path d="M683.36 22.1584H683.438C685.26 22.1584 686.109 21.5575 686.109 20.075C686.109 19.0104 685.332 18.1614 684.026 18.1614H682.347C681.845 18.1614 681.544 17.874 681.544 17.3907C681.544 17.0642 681.668 16.6593 682.491 16.6593H686.162C686.24 16.1825 686.279 15.8821 686.351 15.4053H682.537C680.76 15.4053 679.866 16.1498 679.866 17.3907C679.866 18.6186 680.643 19.2586 681.949 19.2586H683.628C684.13 19.2586 684.431 19.657 684.431 20.075C684.431 20.3493 684.307 20.9175 683.49 20.9175H683.21L677.835 20.9044H676.855C676.025 20.9044 675.444 20.4342 675.444 19.3435V18.5924C675.444 17.456 675.895 16.7507 676.855 16.7507H678.448C678.52 16.2674 678.566 15.9604 678.631 15.5033H676.646H676.456C674.83 15.5033 673.707 16.5939 673.668 18.4945V18.5663V19.3435C673.707 21.244 674.83 22.1518 676.456 22.1518H676.646H678.044L680.956 22.1584H682.694H683.36Z" fill="#27292D"/>
</g>
</g>
<defs>
<linearGradient id="paint0_linear_954_181" x1="602.242" y1="23.3925" x2="613.923" y2="23.3925" gradientUnits="userSpaceOnUse">
<stop stop-color="#58B03A"/>
<stop offset="1" stop-color="#55B330"/>
</linearGradient>
<linearGradient id="paint1_linear_954_181" x1="575.887" y1="24.2716" x2="587.617" y2="24.2716" gradientUnits="userSpaceOnUse">
<stop stop-color="#0F6EB6"/>
<stop offset="1" stop-color="#006DBA"/>
</linearGradient>
<linearGradient id="paint2_linear_954_181" x1="589.211" y1="23.6679" x2="600.9" y2="23.6679" gradientUnits="userSpaceOnUse">
<stop stop-color="#DE0D3D"/>
<stop offset="1" stop-color="#E30138"/>
</linearGradient>
<clipPath id="clip0_954_181">
<rect width="710" height="48" fill="white"/>
</clipPath>
<clipPath id="clip1_954_181">
<rect width="52" height="17.3399" fill="white" transform="translate(649 15.3335)"/>
</clipPath>
</defs>
</svg>
